<svg xmlns="http://www.w3.org/2000/svg" width="233" height="205" viewBox="0 0 233 205" fill="none">
  <rect x="1.20776" y="1.20691" width="230.286" height="202.586" fill="#FAFAFA" stroke="#E5E9EA"/>
  <rect x="1.20776" y="102.5" width="230.286" height="0.791352" fill="#E5E9EA"/>
  <rect x="1.20776" y="121.492" width="230.286" height="0.791352" fill="#E5E9EA"/>
  <rect x="1.20776" y="140.485" width="230.286" height="0.791352" fill="#E5E9EA"/>
  <rect x="1.20776" y="159.477" width="230.286" height="0.791352" fill="#E5E9EA"/>
  <rect x="1.20776" y="26.5302" width="230.286" height="0.791352" fill="#E5E9EA"/>
  <rect x="1.20776" y="7.53772" width="230.286" height="0.791352" fill="#E5E9EA"/>
  <rect x="1.20776" y="45.5226" width="230.286" height="0.791352" fill="#E5E9EA"/>
  <rect x="1.20776" y="64.5151" width="230.286" height="0.791352" fill="#E5E9EA"/>
  <rect x="1.20776" y="83.5076" width="230.286" height="0.791352" fill="#E5E9EA"/>
  <rect x="1.20776" y="178.47" width="230.286" height="0.791352" fill="#E5E9EA"/>
  <rect x="1.20776" y="197.462" width="230.286" height="0.791352" fill="#E5E9EA"/>
  <path d="M7.28564 102.5H38.3506V148.147C38.3506 150.908 36.112 153.147 33.3506 153.147H12.2856C9.52422 153.147 7.28564 150.908 7.28564 148.147V102.5Z" fill="#242D52"/>
  <path d="M7.28564 102.5H38.3506V135.485C38.3506 138.246 36.112 140.485 33.3506 140.485H12.2856C9.52422 140.485 7.28564 138.246 7.28564 135.485V102.5Z" fill="#F3603C"/>
  <path d="M54.5585 102.234H85.6234V67.6581C85.6234 64.8967 83.3848 62.6581 80.6234 62.6581H59.5585C56.797 62.6581 54.5585 64.8967 54.5585 67.6581V102.234Z" fill="#F3603C"/>
  <path d="M54.5585 102.234H85.6234V154.224C85.6234 156.986 83.3848 159.224 80.6234 159.224H59.5585C56.797 159.224 54.5585 156.986 54.5585 154.224V102.234Z" fill="#242D52"/>
  <path d="M147.078 102.5H178.143V31.1926C178.143 28.4312 175.904 26.1926 173.143 26.1926H152.078C149.316 26.1926 147.078 28.4312 147.078 31.1926V102.5Z" fill="#242D52"/>
  <path d="M147.078 102.5H178.143V50.2695C178.143 47.508 175.904 45.2695 173.143 45.2695H152.078C149.316 45.2695 147.078 47.508 147.078 50.2695V102.5Z" fill="#F3603C"/>
  <path d="M194.351 102.5H225.416V160.977C225.416 163.738 223.177 165.977 220.416 165.977H199.351C196.589 165.977 194.351 163.738 194.351 160.977V102.5Z" fill="#242D52"/>
  <path d="M194.351 102.5H225.416V148.282C225.416 151.043 223.177 153.282 220.416 153.282H199.351C196.589 153.282 194.351 151.043 194.351 148.282V102.5Z" fill="#F3603C"/>
  <path d="M100.48 102.5H131.545V192.716C131.545 195.477 129.307 197.716 126.545 197.716H105.48C102.719 197.716 100.48 195.477 100.48 192.716V102.5Z" fill="#F3603C"/>
  <path d="M100.48 102.5H131.545V135.586C131.545 138.348 129.307 140.586 126.545 140.586H105.48C102.719 140.586 100.48 138.348 100.48 135.586V102.5Z" fill="#242D52"/>
</svg>