<svg width="229" height="204" viewBox="0 0 229 204" fill="none" xmlns="http://www.w3.org/2000/svg">
<rect x="0.207764" y="124.46" width="106.026" height="78.3333" rx="4" fill="#F3603C"/>
<path fill-rule="evenodd" clip-rule="evenodd" d="M61.9301 176.899C61.33 177.506 60.6012 177.809 59.7439 177.809C58.8865 177.809 58.1561 177.506 57.5527 176.899C56.9492 176.293 56.6475 175.557 56.6475 174.694C56.6475 173.843 56.9509 173.114 57.5576 172.507C58.1644 171.901 58.8931 171.597 59.7439 171.597C60.6012 171.597 61.33 171.901 61.9301 172.507C62.5302 173.114 62.8303 173.843 62.8303 174.694C62.8303 175.551 62.5302 176.286 61.9301 176.899ZM35.5153 185.911V171.805H33.3587L29.926 174.802V177.176L33.24 174.199V185.911H35.5153ZM23.2513 183.873V179.966H27.1489V178.185H23.2513V174.278H21.4706V178.185H17.5631V179.966H21.4706V183.873H23.2513ZM42.9369 185.703C42.6632 185.974 42.3351 186.109 41.9526 186.109C41.5767 186.109 41.2503 185.972 40.9733 185.698C40.6963 185.425 40.5578 185.1 40.5578 184.724C40.5578 184.341 40.6963 184.013 40.9733 183.74C41.2503 183.466 41.5767 183.329 41.9526 183.329C42.3351 183.329 42.6632 183.466 42.9369 183.74C43.2106 184.013 43.3475 184.341 43.3475 184.724C43.3475 185.106 43.2106 185.433 42.9369 185.703ZM50.5366 186.099C51.9875 186.099 53.1598 185.655 54.0534 184.768C54.947 183.881 55.3938 182.716 55.3938 181.272C55.3938 179.834 54.9553 178.728 54.0781 177.953C53.201 177.178 51.8787 176.791 50.1113 176.791H48.568L48.8747 173.872H54.7508V171.815H46.8863L46.1543 178.729H49.7848C51.9941 178.729 53.0988 179.603 53.0988 181.351C53.0988 182.142 52.8663 182.78 52.4014 183.265C51.9364 183.75 51.2983 183.992 50.4872 183.992C49.7815 183.992 49.1797 183.787 48.6818 183.379C48.1839 182.97 47.9349 182.356 47.9349 181.539C47.9349 181.374 47.958 181.136 48.0042 180.826L45.719 180.965C45.686 181.249 45.6695 181.486 45.6695 181.677C45.6695 182.594 45.8971 183.393 46.3521 184.076C46.8072 184.759 47.3974 185.266 48.1229 185.599C48.8483 185.932 49.6529 186.099 50.5366 186.099ZM60.832 185.921L68.2909 171.785H66.3125L58.8733 185.921H60.832ZM58.6557 175.787C58.9591 176.087 59.3218 176.237 59.7439 176.237C60.1791 176.237 60.5435 176.087 60.837 175.787C61.1305 175.487 61.2772 175.122 61.2772 174.694C61.2772 174.271 61.1288 173.912 60.832 173.615C60.5353 173.319 60.1725 173.17 59.7439 173.17C59.3218 173.17 58.9591 173.317 58.6557 173.61C58.3523 173.904 58.2006 174.265 58.2006 174.694C58.2006 175.122 58.3523 175.487 58.6557 175.787ZM67.5292 186.079C68.38 186.079 69.1038 185.776 69.7006 185.169C70.2975 184.562 70.5959 183.834 70.5959 182.983C70.5959 182.126 70.2958 181.395 69.6957 180.792C69.0955 180.188 68.3734 179.887 67.5292 179.887C66.6719 179.887 65.9398 180.188 65.3331 180.792C64.7264 181.395 64.423 182.126 64.423 182.983C64.423 183.84 64.7247 184.571 65.3282 185.174C65.9316 185.777 66.6653 186.079 67.5292 186.079ZM66.4312 184.066C66.7279 184.366 67.094 184.516 67.5292 184.516C67.9513 184.516 68.314 184.366 68.6174 184.066C68.9208 183.766 69.0724 183.405 69.0724 182.983C69.0724 182.561 68.9191 182.198 68.6124 181.895C68.3058 181.591 67.9447 181.44 67.5292 181.44C67.094 181.44 66.7279 181.588 66.4312 181.885C66.1344 182.182 65.986 182.548 65.986 182.983C65.986 183.405 66.1344 183.766 66.4312 184.066Z" fill="white"/>
<rect x="121.766" y="124.46" width="106.026" height="78.3333" rx="4" fill="#FAFAFA"/>
<path fill-rule="evenodd" clip-rule="evenodd" d="M176.695 185.911V183.853H170.186L174.331 179.56C174.997 178.868 175.485 178.218 175.795 177.612C176.105 177.005 176.26 176.342 176.26 175.623C176.26 174.37 175.841 173.384 175.003 172.666C174.166 171.947 173.088 171.587 171.769 171.587C170.364 171.587 169.249 171.98 168.425 172.765C167.601 173.549 167.188 174.674 167.188 176.138V176.929L169.454 177.147V176.108C169.454 175.191 169.662 174.524 170.077 174.105C170.493 173.686 171.06 173.477 171.779 173.477C172.464 173.477 173.008 173.666 173.411 174.046C173.813 174.425 174.014 174.954 174.014 175.633C174.014 176.51 173.543 177.434 172.6 178.403L166.961 184.19V185.911H176.695ZM143.87 186.099C144.806 186.099 145.647 185.931 146.393 185.594C147.138 185.251 147.73 184.75 148.168 184.091C148.607 183.431 148.826 182.67 148.826 181.806C148.826 180.955 148.608 180.213 148.173 179.58C147.738 178.947 147.148 178.466 146.402 178.136C146.93 177.826 147.345 177.422 147.649 176.924C147.952 176.426 148.104 175.871 148.104 175.257C148.104 174.189 147.703 173.314 146.902 172.631C146.101 171.949 145.09 171.607 143.87 171.607C142.63 171.607 141.608 171.947 140.803 172.626C139.999 173.305 139.596 174.182 139.596 175.257C139.596 175.871 139.751 176.426 140.061 176.924C140.371 177.422 140.797 177.826 141.337 178.136C140.579 178.459 139.984 178.937 139.552 179.57C139.12 180.203 138.904 180.949 138.904 181.806C138.904 182.67 139.123 183.431 139.562 184.091C140 184.75 140.594 185.25 141.342 185.589C142.091 185.929 142.933 186.099 143.87 186.099ZM143.87 177.434C143.263 177.434 142.752 177.237 142.337 176.845C141.921 176.453 141.713 175.966 141.713 175.386C141.713 174.819 141.921 174.342 142.337 173.957C142.752 173.571 143.263 173.378 143.87 173.378C144.47 173.378 144.978 173.571 145.393 173.957C145.809 174.342 146.017 174.819 146.017 175.386C146.017 175.96 145.807 176.444 145.388 176.84C144.97 177.236 144.463 177.434 143.87 177.434ZM141.951 183.359C142.459 183.814 143.098 184.041 143.87 184.041C144.628 184.041 145.261 183.812 145.769 183.354C146.277 182.896 146.531 182.291 146.531 181.539C146.531 180.794 146.277 180.197 145.769 179.748C145.261 179.3 144.628 179.076 143.87 179.076C143.098 179.076 142.459 179.3 141.951 179.748C141.443 180.197 141.189 180.794 141.189 181.539C141.189 182.297 141.443 182.904 141.951 183.359ZM154.947 186.099C155.883 186.099 156.724 185.931 157.469 185.594C158.215 185.251 158.807 184.75 159.245 184.091C159.684 183.431 159.903 182.67 159.903 181.806C159.903 180.955 159.685 180.213 159.25 179.58C158.815 178.947 158.225 178.466 157.479 178.136C158.007 177.826 158.422 177.422 158.726 176.924C159.029 176.426 159.181 175.871 159.181 175.257C159.181 174.189 158.78 173.314 157.979 172.631C157.178 171.949 156.167 171.607 154.947 171.607C153.707 171.607 152.685 171.947 151.88 172.626C151.076 173.305 150.673 174.182 150.673 175.257C150.673 175.871 150.828 176.426 151.138 176.924C151.448 177.422 151.874 177.826 152.414 178.136C151.656 178.459 151.061 178.937 150.629 179.57C150.197 180.203 149.981 180.949 149.981 181.806C149.981 182.67 150.2 183.431 150.639 184.091C151.077 184.75 151.671 185.25 152.419 185.589C153.168 185.929 154.01 186.099 154.947 186.099ZM153.414 176.845C153.829 177.237 154.34 177.434 154.947 177.434C155.54 177.434 156.047 177.236 156.465 176.84C156.884 176.444 157.094 175.96 157.094 175.386C157.094 174.819 156.886 174.342 156.47 173.957C156.055 173.571 155.547 173.378 154.947 173.378C154.34 173.378 153.829 173.571 153.414 173.957C152.998 174.342 152.79 174.819 152.79 175.386C152.79 175.966 152.998 176.453 153.414 176.845ZM154.947 184.041C154.175 184.041 153.536 183.814 153.028 183.359C152.52 182.904 152.266 182.297 152.266 181.539C152.266 180.794 152.52 180.197 153.028 179.748C153.536 179.3 154.175 179.076 154.947 179.076C155.705 179.076 156.338 179.3 156.846 179.748C157.354 180.197 157.608 180.794 157.608 181.539C157.608 182.291 157.354 182.896 156.846 183.354C156.338 183.812 155.705 184.041 154.947 184.041ZM164.367 185.703C164.093 185.974 163.765 186.109 163.382 186.109C163.007 186.109 162.68 185.972 162.403 185.698C162.126 185.425 161.988 185.1 161.988 184.724C161.988 184.341 162.126 184.013 162.403 183.74C162.68 183.466 163.007 183.329 163.382 183.329C163.765 183.329 164.093 183.466 164.367 183.74C164.64 184.013 164.777 184.341 164.777 184.724C164.777 185.106 164.64 185.433 164.367 185.703ZM186.397 183.151V185.911H184.122V183.151H177.494V181.094L182.925 171.805H186.397V181.103H188.336V183.151H186.397ZM184.122 181.103H179.71L184.122 173.269V181.103ZM194.437 176.899C193.837 177.506 193.108 177.809 192.251 177.809C191.393 177.809 190.663 177.506 190.059 176.899C189.456 176.293 189.154 175.557 189.154 174.694C189.154 173.843 189.458 173.114 190.064 172.507C190.671 171.901 191.4 171.597 192.251 171.597C193.108 171.597 193.837 171.901 194.437 172.507C195.037 173.114 195.337 173.843 195.337 174.694C195.337 175.551 195.037 176.286 194.437 176.899ZM193.339 185.921L200.798 171.785H198.819L191.38 185.921H193.339ZM191.162 175.787C191.466 176.087 191.829 176.237 192.251 176.237C192.686 176.237 193.05 176.087 193.344 175.787C193.637 175.487 193.784 175.122 193.784 174.694C193.784 174.271 193.636 173.912 193.339 173.615C193.042 173.319 192.679 173.17 192.251 173.17C191.829 173.17 191.466 173.317 191.162 173.61C190.859 173.904 190.707 174.265 190.707 174.694C190.707 175.122 190.859 175.487 191.162 175.787ZM200.036 186.079C200.887 186.079 201.611 185.776 202.207 185.169C202.804 184.562 203.103 183.834 203.103 182.983C203.103 182.126 202.803 181.395 202.202 180.792C201.602 180.188 200.88 179.887 200.036 179.887C199.179 179.887 198.447 180.188 197.84 180.792C197.233 181.395 196.93 182.126 196.93 182.983C196.93 183.84 197.231 184.571 197.835 185.174C198.438 185.777 199.172 186.079 200.036 186.079ZM198.938 184.066C199.235 184.366 199.601 184.516 200.036 184.516C200.458 184.516 200.821 184.366 201.124 184.066C201.428 183.766 201.579 183.405 201.579 182.983C201.579 182.561 201.426 182.198 201.119 181.895C200.813 181.591 200.451 181.44 200.036 181.44C199.601 181.44 199.235 181.588 198.938 181.885C198.641 182.182 198.493 182.548 198.493 182.983C198.493 183.405 198.641 183.766 198.938 184.066Z" fill="#1E272E"/>
<rect x="0.207764" y="0.206909" width="227.584" height="108.046" rx="4" fill="#FAFAFA"/>
<path fill-rule="evenodd" clip-rule="evenodd" d="M135.631 65.3932C134.351 66.6875 132.796 67.3347 130.967 67.3347C129.138 67.3347 127.58 66.6875 126.293 65.3932C125.006 64.0989 124.362 62.5303 124.362 60.6873C124.362 58.8725 125.009 57.3179 126.304 56.0236C127.598 54.7293 129.153 54.0822 130.967 54.0822C132.796 54.0822 134.351 54.7293 135.631 56.0236C136.912 57.3179 137.552 58.8725 137.552 60.6873C137.552 62.5162 136.912 64.0848 135.631 65.3932ZM34.3749 83.9425C32.7851 84.66 30.9913 85.0188 28.9934 85.0188C26.9956 85.0188 25.1983 84.6565 23.6014 83.932C22.0045 83.2074 20.7383 82.1418 19.8027 80.7349C18.8671 79.3281 18.3993 77.7031 18.3993 75.8602C18.3993 74.0313 18.8601 72.4415 19.7816 71.091C20.7031 69.7404 21.9729 68.7204 23.5909 68.0311C22.4372 67.3698 21.5297 66.5081 20.8684 65.446C20.2072 64.3838 19.8766 63.1985 19.8766 61.8902C19.8766 59.597 20.7348 57.7259 22.4512 56.2768C24.1677 54.8278 26.3484 54.1033 28.9934 54.1033C31.5963 54.1033 33.7524 54.8313 35.4618 56.2874C37.1712 57.7435 38.0259 59.6111 38.0259 61.8902C38.0259 63.1985 37.7023 64.3838 37.0551 65.446C36.4079 66.5081 35.5216 67.3698 34.396 68.0311C35.9859 68.7345 37.2451 69.7615 38.1736 71.1121C39.1022 72.4626 39.5665 74.0453 39.5665 75.8602C39.5665 77.7031 39.0987 79.3281 38.1631 80.7349C37.2275 82.1418 35.9648 83.211 34.3749 83.9425ZM25.7223 65.2772C26.6087 66.1142 27.6991 66.5328 28.9934 66.5328C30.2597 66.5328 31.3395 66.1107 32.2329 65.2666C33.1263 64.4225 33.573 63.3885 33.573 62.1645C33.573 60.9546 33.1298 59.9382 32.2434 59.1152C31.3571 58.2921 30.2738 57.8806 28.9934 57.8806C27.6991 57.8806 26.6087 58.2921 25.7223 59.1152C24.836 59.9382 24.3928 60.9546 24.3928 62.1645C24.3928 63.4025 24.836 64.4401 25.7223 65.2772ZM28.9934 80.6294C27.3473 80.6294 25.9826 80.144 24.8993 79.1733C23.816 78.2026 23.2743 76.9083 23.2743 75.2904C23.2743 73.7007 23.816 72.4275 24.8993 71.4708C25.9826 70.5141 27.3473 70.0358 28.9934 70.0358C30.6114 70.0358 31.9621 70.5141 33.0454 71.4708C34.1287 72.4275 34.6704 73.7007 34.6704 75.2904C34.6704 76.8942 34.1287 78.185 33.0454 79.1627C31.9621 80.1405 30.6114 80.6294 28.9934 80.6294ZM60.4594 71.7451L50.7305 84.6178H45.0957L53.1152 74.2986C52.5102 74.4252 51.8771 74.4885 51.2159 74.4885C49.5416 74.4885 47.9799 74.0946 46.5308 73.3067C45.0816 72.5189 43.8963 71.3618 42.9748 69.8353C42.0532 68.3089 41.5854 66.5609 41.5714 64.5913C41.5573 62.5795 42.0392 60.7682 43.017 59.1574C43.9948 57.5465 45.3032 56.3085 46.9423 55.4433C48.5814 54.5781 50.3787 54.1455 52.3344 54.1455C54.3322 54.1455 56.1506 54.5816 57.7897 55.4538C59.4288 56.3261 60.7267 57.5536 61.6834 59.1363C62.6401 60.719 63.1184 62.4951 63.1184 64.4647C63.1184 66.9267 62.2321 69.3535 60.4594 71.7451ZM52.461 70.8588C50.6601 70.8588 49.1864 70.2926 48.0397 69.1601C46.8931 68.0275 46.3127 66.5398 46.2986 64.6968C46.2846 62.882 46.8614 61.4083 48.0292 60.2758C49.1969 59.1433 50.6742 58.577 52.461 58.577C54.2759 58.577 55.7391 59.1257 56.8506 60.223C57.9621 61.3204 58.5178 62.7976 58.5178 64.6546C58.5178 66.4132 57.9515 67.8869 56.8189 69.0756C55.6864 70.2644 54.2337 70.8588 52.461 70.8588ZM72.2248 84.1746C71.6409 84.7515 70.941 85.0399 70.1249 85.0399C69.323 85.0399 68.6266 84.7479 68.0357 84.1641C67.4447 83.5803 67.1493 82.8874 67.1493 82.0855C67.1493 81.2695 67.4447 80.5696 68.0357 79.9858C68.6266 79.4019 69.323 79.11 70.1249 79.11C70.941 79.11 71.6409 79.4019 72.2248 79.9858C72.8087 80.5696 73.1006 81.2695 73.1006 82.0855C73.1006 82.9014 72.8087 83.5978 72.2248 84.1746ZM84.349 84.6178L98.5097 58.3871V54.5253H77.5957V58.8936H93.0438L78.8197 84.6178H84.349ZM118.727 78.7301V84.6178H113.873V78.7301H99.7337V74.3408L111.32 54.5253H118.727V74.3619H122.864V78.7301H118.727ZM113.873 74.3619H104.461L113.873 57.6485V74.3619ZM133.289 84.6389L149.201 54.4831H144.98L129.11 84.6389H133.289ZM128.646 63.0192C129.293 63.6593 130.067 63.9793 130.967 63.9793C131.896 63.9793 132.673 63.6593 133.299 63.0192C133.926 62.379 134.239 61.6018 134.239 60.6873C134.239 59.7869 133.922 59.0202 133.289 58.3871C132.656 57.754 131.882 57.4375 130.967 57.4375C130.067 57.4375 129.293 57.7505 128.646 58.3766C127.999 59.0026 127.675 59.7729 127.675 60.6873C127.675 61.6018 127.999 62.379 128.646 63.0192ZM147.576 84.9766C149.391 84.9766 150.935 84.3294 152.209 83.0351C153.482 81.7408 154.118 80.1862 154.118 78.3714C154.118 76.5425 153.478 74.9844 152.198 73.6971C150.918 72.4099 149.377 71.7662 147.576 71.7662C145.747 71.7662 144.186 72.4099 142.891 73.6971C141.597 74.9844 140.95 76.5425 140.95 78.3714C140.95 80.2003 141.593 81.7584 142.881 83.0457C144.168 84.3329 145.733 84.9766 147.576 84.9766ZM145.234 80.6821C145.867 81.3223 146.648 81.6423 147.576 81.6423C148.477 81.6423 149.25 81.3223 149.898 80.6821C150.545 80.042 150.868 79.2718 150.868 78.3714C150.868 77.471 150.541 76.6972 149.887 76.0501C149.233 75.4029 148.463 75.0794 147.576 75.0794C146.648 75.0794 145.867 75.3959 145.234 76.029C144.601 76.6621 144.284 77.4429 144.284 78.3714C144.284 79.2718 144.601 80.042 145.234 80.6821Z" fill="#343A40"/>
</svg>
